# xmcd
#
# Track frame offsets:
#	150
#	22078
#	43245
#	66145
#	88014
#	103225
#	125905
#	141299
#	157362
#	189420
#	195738
#	217123
#	235002
#	253863
#	266013
#	286596
#	302445
#	315746
#
# Disc length: 4454 seconds
#
# Revision: 0
# Processed by: cddbd v1.5.1PL0 Copyright (c) Steve Scherf et al.
# Submitted via: dBpowerAMP V4.0
#
DISCID=19116412
DTITLE=I Fiò Dla Nebia  - Quartiere
DYEAR=1900
DGENRE=
TTITLE0=Chi l'è lu
TTITLE1=I don
TTITLE2=Oh Yaah
TTITLE3=Quartiere
TTITLE4=Scarnebia
TTITLE5=Fancis
TTITLE6=La burela
TTITLE7=epilogo dla burela
TTITLE8=Nadal a Pavia
TTITLE9=Varadero Beach
TTITLE10=Corsino Park
TTITLE11=Al Pavia in serie A
TTITLE12=Al giurament
TTITLE13=Sta su da dos
TTITLE14=Dai movat disbroiat
TTITLE15=Ma che du
TTITLE16=Quand fa cald a Pavia
TTITLE17=L'ultim di d'fera
EXTD=
EXTT0=
EXTT1=
EXTT2=
EXTT3=
EXTT4=
EXTT5=
EXTT6=
EXTT7=
EXTT8=
EXTT9=
EXTT10=
EXTT11=
EXTT12=
EXTT13=
EXTT14=
EXTT15=
EXTT16=
EXTT17=
PLAYORDER=
